<svg width="195" height="16" viewBox="0 0 195 16" fill="block" xmlns="http://www.w3.org/2000/svg">
<path d="M0.952 12V2.2H4.298C5.446 2.2 6.38867 2.40533 7.126 2.816C7.87267 3.21733 8.42333 3.78667 8.778 4.524C9.142 5.252 9.324 6.11067 9.324 7.1C9.324 8.08933 9.142 8.95267 8.778 9.69C8.42333 10.418 7.87267 10.9873 7.126 11.398C6.38867 11.7993 5.446 12 4.298 12H0.952ZM2.744 10.46H4.214C5.03533 10.46 5.684 10.3293 6.16 10.068C6.636 9.79733 6.97667 9.41467 7.182 8.92C7.38733 8.416 7.49 7.80933 7.49 7.1C7.49 6.4 7.38733 5.798 7.182 5.294C6.97667 4.79 6.636 4.40267 6.16 4.132C5.684 3.86133 5.03533 3.726 4.214 3.726H2.744V10.46ZM14.4371 12.168C13.7371 12.168 13.1165 12.0187 12.5751 11.72C12.0338 11.4213 11.6091 11.0013 11.3011 10.46C10.9931 9.91867 10.8391 9.29333 10.8391 8.584C10.8391 7.86533 10.9885 7.226 11.2871 6.666C11.5951 6.106 12.0151 5.672 12.5471 5.364C13.0885 5.04667 13.7231 4.888 14.4511 4.888C15.1325 4.888 15.7345 5.03733 16.2571 5.336C16.7798 5.63467 17.1858 6.04533 17.4751 6.568C17.7738 7.08133 17.9231 7.65533 17.9231 8.29C17.9231 8.39267 17.9185 8.5 17.9091 8.612C17.9091 8.724 17.9045 8.84067 17.8951 8.962H12.6171C12.6545 9.50333 12.8411 9.928 13.1771 10.236C13.5225 10.544 13.9378 10.698 14.4231 10.698C14.7871 10.698 15.0905 10.6187 15.3331 10.46C15.5851 10.292 15.7718 10.0773 15.8931 9.816H17.7131C17.5825 10.2547 17.3631 10.656 17.0551 11.02C16.7565 11.3747 16.3831 11.6547 15.9351 11.86C15.4965 12.0653 14.9971 12.168 14.4371 12.168ZM14.4511 6.344C14.0125 6.344 13.6251 6.47 13.2891 6.722C12.9531 6.96467 12.7385 7.338 12.6451 7.842H16.1031C16.0751 7.38467 15.9071 7.02067 15.5991 6.75C15.2911 6.47933 14.9085 6.344 14.4511 6.344ZM22.5003 12.168C21.8843 12.168 21.343 12.07 20.8763 11.874C20.4096 11.6687 20.0363 11.3887 19.7563 11.034C19.4763 10.6793 19.3083 10.2687 19.2523 9.802H21.0583C21.1143 10.0727 21.2636 10.306 21.5063 10.502C21.7583 10.6887 22.0803 10.782 22.4723 10.782C22.8643 10.782 23.149 10.7027 23.3263 10.544C23.513 10.3853 23.6063 10.2033 23.6063 9.998C23.6063 9.69933 23.4756 9.49867 23.2143 9.396C22.953 9.284 22.589 9.17667 22.1223 9.074C21.8236 9.00867 21.5203 8.92933 21.2123 8.836C20.9043 8.74267 20.6196 8.626 20.3583 8.486C20.1063 8.33667 19.901 8.15 19.7423 7.926C19.5836 7.69267 19.5043 7.408 19.5043 7.072C19.5043 6.456 19.747 5.938 20.2323 5.518C20.727 5.098 21.4176 4.888 22.3043 4.888C23.1256 4.888 23.779 5.07933 24.2643 5.462C24.759 5.84467 25.053 6.372 25.1463 7.044H23.4523C23.3496 6.53067 22.9623 6.274 22.2903 6.274C21.9543 6.274 21.693 6.33933 21.5063 6.47C21.329 6.60067 21.2403 6.764 21.2403 6.96C21.2403 7.16533 21.3756 7.32867 21.6463 7.45C21.917 7.57133 22.2763 7.68333 22.7243 7.786C23.2096 7.898 23.653 8.024 24.0543 8.164C24.465 8.29467 24.7916 8.49533 25.0343 8.766C25.277 9.02733 25.3983 9.40533 25.3983 9.9C25.4076 10.3293 25.2956 10.7167 25.0623 11.062C24.829 11.4073 24.493 11.678 24.0543 11.874C23.6156 12.07 23.0976 12.168 22.5003 12.168ZM28.1518 3.978C27.8251 3.978 27.5544 3.88 27.3398 3.684C27.1344 3.488 27.0318 3.24067 27.0318 2.942C27.0318 2.64333 27.1344 2.40067 27.3398 2.214C27.5544 2.018 27.8251 1.92 28.1518 1.92C28.4784 1.92 28.7444 2.018 28.9498 2.214C29.1644 2.40067 29.2718 2.64333 29.2718 2.942C29.2718 3.24067 29.1644 3.488 28.9498 3.684C28.7444 3.88 28.4784 3.978 28.1518 3.978ZM27.2558 12V5.056H29.0478V12H27.2558ZM34.0582 9.928C33.7222 9.928 33.4095 9.89067 33.1202 9.816L32.6022 10.334C32.7609 10.418 32.9755 10.488 33.2462 10.544C33.5169 10.6 33.9555 10.656 34.5622 10.712C35.4862 10.796 36.1582 11.0153 36.5782 11.37C36.9982 11.7247 37.2082 12.2147 37.2082 12.84C37.2082 13.2507 37.0962 13.638 36.8722 14.002C36.6482 14.3753 36.3029 14.674 35.8362 14.898C35.3695 15.1313 34.7722 15.248 34.0442 15.248C33.0549 15.248 32.2569 15.0613 31.6502 14.688C31.0435 14.324 30.7402 13.7733 30.7402 13.036C30.7402 12.4107 31.0435 11.8693 31.6502 11.412C31.4635 11.328 31.3002 11.2393 31.1602 11.146C31.0295 11.0527 30.9129 10.9547 30.8102 10.852V10.53L32.0282 9.242C31.4869 8.766 31.2162 8.15467 31.2162 7.408C31.2162 6.94133 31.3282 6.51667 31.5522 6.134C31.7855 5.75133 32.1122 5.448 32.5322 5.224C32.9522 5 33.4609 4.888 34.0582 4.888C34.4502 4.888 34.8142 4.944 35.1502 5.056H37.7822V6.148L36.5922 6.232C36.7789 6.58667 36.8722 6.97867 36.8722 7.408C36.8722 7.87467 36.7602 8.29933 36.5362 8.682C36.3122 9.06467 35.9855 9.368 35.5562 9.592C35.1362 9.816 34.6369 9.928 34.0582 9.928ZM34.0582 8.556C34.4222 8.556 34.7209 8.458 34.9542 8.262C35.1969 8.066 35.3182 7.786 35.3182 7.422C35.3182 7.058 35.1969 6.778 34.9542 6.582C34.7209 6.386 34.4222 6.288 34.0582 6.288C33.6755 6.288 33.3675 6.386 33.1342 6.582C32.9009 6.778 32.7842 7.058 32.7842 7.422C32.7842 7.786 32.9009 8.066 33.1342 8.262C33.3675 8.458 33.6755 8.556 34.0582 8.556ZM32.3782 12.854C32.3782 13.1993 32.5369 13.456 32.8542 13.624C33.1809 13.8013 33.5775 13.89 34.0442 13.89C34.4922 13.89 34.8562 13.7967 35.1362 13.61C35.4162 13.4327 35.5562 13.19 35.5562 12.882C35.5562 12.63 35.4629 12.42 35.2762 12.252C35.0989 12.084 34.7395 11.9813 34.1982 11.944C33.8155 11.916 33.4609 11.874 33.1342 11.818C32.8635 11.9673 32.6675 12.1307 32.5462 12.308C32.4342 12.4853 32.3782 12.6673 32.3782 12.854ZM39.2889 12V5.056H40.8709L41.0109 6.232C41.2256 5.82133 41.5336 5.49467 41.9349 5.252C42.3456 5.00933 42.8262 4.888 43.3769 4.888C44.2356 4.888 44.9029 5.15867 45.3789 5.7C45.8549 6.24133 46.0929 7.03467 46.0929 8.08V12H44.3009V8.248C44.3009 7.65067 44.1796 7.19333 43.9369 6.876C43.6942 6.55867 43.3162 6.4 42.8029 6.4C42.2989 6.4 41.8836 6.57733 41.5569 6.932C41.2396 7.28667 41.0809 7.78133 41.0809 8.416V12H39.2889ZM55.6584 12.168C55.1358 12.168 54.6784 12.07 54.2864 11.874C53.8944 11.678 53.5771 11.4027 53.3344 11.048L53.1384 12H51.5424V1.92H53.3344V6.05C53.5584 5.742 53.8524 5.47133 54.2164 5.238C54.5898 5.00467 55.0704 4.888 55.6584 4.888C56.3118 4.888 56.8951 5.04667 57.4084 5.364C57.9218 5.68133 58.3278 6.11533 58.6264 6.666C58.9251 7.21667 59.0744 7.842 59.0744 8.542C59.0744 9.242 58.9251 9.86733 58.6264 10.418C58.3278 10.9593 57.9218 11.3887 57.4084 11.706C56.8951 12.014 56.3118 12.168 55.6584 12.168ZM55.2804 10.6C55.8498 10.6 56.3211 10.4087 56.6944 10.026C57.0678 9.64333 57.2544 9.14867 57.2544 8.542C57.2544 7.93533 57.0678 7.436 56.6944 7.044C56.3211 6.652 55.8498 6.456 55.2804 6.456C54.7018 6.456 54.2258 6.652 53.8524 7.044C53.4884 7.42667 53.3064 7.92133 53.3064 8.528C53.3064 9.13467 53.4884 9.634 53.8524 10.026C54.2258 10.4087 54.7018 10.6 55.2804 10.6ZM61.1143 15.08L62.7243 11.538H62.3043L59.6023 5.056H61.5483L63.4943 9.942L65.5243 5.056H67.4283L63.0183 15.08H61.1143Z" fill="#FFFFFF"/>
<path d="M81.0858 2.2L78.3278 9.48L75.5698 2.2H71.5658L75.6258 12H81.0298L85.0898 2.2H81.0858ZM89.7695 3.46C88.2155 3.46 86.3955 3.768 84.7155 4.314L85.8075 6.694C87.3475 6.358 88.5795 6.26 89.6575 6.26C90.7775 6.26 91.8415 6.302 91.8415 7.31C91.0715 7.03 90.1755 6.876 88.9995 6.876C86.5495 6.876 84.0295 7.45 84.0295 9.634C84.0295 11.454 85.7095 12.14 87.6275 12.14C89.0835 12.14 90.5395 11.93 91.8415 10.978V12H95.2015V7.842C95.1735 4.636 93.2135 3.46 89.7695 3.46ZM91.8415 9.256C91.0015 9.62 89.7695 9.9 88.6355 9.9C87.7815 9.9 87.3895 9.83 87.3895 9.368C87.3895 8.836 88.0615 8.696 89.6155 8.696C90.5815 8.696 91.3095 8.766 91.8415 8.906V9.256ZM95.9632 0.8V12H99.3232V0.8H95.9632ZM108.011 0.8V4.748C107.129 3.852 105.841 3.46 104.539 3.46C102.369 3.46 99.947 4.412 99.947 7.8C99.947 11.188 102.369 12.14 104.539 12.14C105.841 12.14 107.129 11.748 108.011 10.852V12H111.371V0.8H108.011ZM105.659 9.34C104.161 9.34 103.307 9.032 103.307 7.8C103.307 6.568 104.161 6.26 105.659 6.26C107.157 6.26 108.011 6.568 108.011 7.8C108.011 9.032 107.157 9.34 105.659 9.34ZM112.127 0.8V3.04H115.487V0.8H112.127ZM112.127 3.6V12H115.487V3.6H112.127ZM116.111 9.102C116.111 11.734 118.911 12.14 122.089 12.14C125.267 12.14 127.507 11.734 127.507 9.172C127.507 6.974 125.393 6.778 122.089 6.61C119.961 6.498 119.611 6.512 119.611 6.162C119.611 5.84 120.101 5.84 121.809 5.84C123.307 5.84 123.867 5.84 123.867 6.288H127.227C127.227 3.866 125.057 3.46 121.949 3.46C118.841 3.46 116.251 3.866 116.251 6.26C116.251 8.402 117.945 8.696 121.809 8.85C123.825 8.934 124.147 8.892 124.147 9.312C124.147 9.676 123.825 9.76 121.949 9.76C119.919 9.76 119.471 9.578 119.471 9.102H116.111ZM135.546 3.46C133.782 3.46 132.494 4.02 131.486 4.72V3.6H128.126V12H131.486V7.464C132.144 6.834 133.194 6.4 134.188 6.4C135.7 6.4 136.218 7.016 136.218 8.458V12H139.578V7.086C139.578 4.048 137.436 3.46 135.546 3.46ZM145.639 9.48C144.715 9.48 143.777 9.256 143.497 8.36H151.463C151.463 4.692 149.237 3.46 145.779 3.46C142.349 3.46 140.067 4.692 140.067 7.8C140.067 10.908 142.349 12.14 145.639 12.14C149.097 12.14 150.903 11.076 151.323 8.85H148.033C147.347 9.396 146.857 9.48 145.639 9.48ZM145.765 5.84C146.661 5.84 147.501 5.924 147.879 6.68H143.651C144.029 5.924 144.869 5.84 145.765 5.84ZM152.083 0.8V3.04H155.443V0.8H152.083ZM152.083 3.6V12H155.443V3.6H152.083ZM171 2.2V7.982L166.772 2.2H162.012V12H165.652V6.218L169.88 12H174.64V2.2H171ZM175.406 0.8V3.04H178.766V0.8H175.406ZM175.406 3.6V12H178.766V3.6H175.406ZM179.53 0.8V12H182.89V0.8H179.53ZM189.225 12.14C192.795 12.14 194.937 10.908 194.937 7.8C194.937 4.692 192.795 3.46 189.225 3.46C185.655 3.46 183.513 4.692 183.513 7.8C183.513 10.908 185.655 12.14 189.225 12.14ZM189.225 9.34C187.727 9.34 186.873 9.032 186.873 7.8C186.873 6.568 187.727 6.26 189.225 6.26C190.723 6.26 191.577 6.568 191.577 7.8C191.577 9.032 190.723 9.34 189.225 9.34Z" fill="#FFFFFF"/>
</svg>
