<svg width="22" height="22" viewBox="0 0 22 22" fill="none" xmlns="http://www.w3.org/2000/svg">
<path fill-rule="evenodd" clip-rule="evenodd" d="M7.00735 0H15.1852C18.9483 0 22 3.05169 22 6.81485V14.9927C22 18.7558 18.9483 21.8075 15.1852 21.8075H7.00735C3.24419 21.8075 0.192505 18.7558 0.192505 14.9927V6.81485C0.192505 3.05169 3.24419 0 7.00735 0ZM15.185 19.7637C17.8155 19.7637 19.9554 17.6239 19.9554 14.9933V6.81551C19.9554 4.18498 17.8155 2.04512 15.185 2.04512H7.00717C4.37664 2.04512 2.23678 4.18498 2.23678 6.81551V14.9933C2.23678 17.6239 4.37664 19.7637 7.00717 19.7637H15.185Z" fill="#FF5800"/>
<path fill-rule="evenodd" clip-rule="evenodd" d="M5.64423 10.904C5.64423 7.89323 8.0853 5.45215 11.0961 5.45215C14.1069 5.45215 16.548 7.89323 16.548 10.904C16.548 13.9148 14.1069 16.3559 11.0961 16.3559C8.0853 16.3559 5.64423 13.9148 5.64423 10.904ZM7.68874 10.9039C7.68874 12.7821 9.21799 14.3114 11.0962 14.3114C12.9743 14.3114 14.5036 12.7821 14.5036 10.9039C14.5036 9.0244 12.9743 7.49651 11.0962 7.49651C9.21799 7.49651 7.68874 9.0244 7.68874 10.9039Z" fill="#FF5800"/>
<circle cx="16.9577" cy="5.04385" r="0.726463" fill="#FF5800"/>
</svg>
