<svg width="43" height="11" viewBox="0 0 43 11" fill="none" xmlns="http://www.w3.org/2000/svg">
<path d="M15.6829 0.199999H12.2809L8.17889 7.116L4.07689 0.199999H0.674891V10H3.19489V3.28L7.26889 10H9.08889L13.1629 3.28V10H15.6829V0.199999ZM30.2757 0.199999H26.4537L19.4677 5.282V0.199999H16.9477V10H19.4677V8.124L22.4777 5.926L26.7897 10H30.2757L24.3397 4.554L30.2757 0.199999ZM40.9482 5.1C41.8862 4.652 42.4602 3.98 42.4602 2.958C42.4602 0.787999 40.4862 0.0599995 37.0422 0.0599995C33.6402 0.0599995 31.3442 0.787999 31.3442 3.91H33.8642C33.8642 2.426 34.7882 2.174 37.1822 2.174C39.3522 2.174 39.9402 2.426 39.9402 3.28C39.9402 4.26 39.1142 4.344 35.7822 4.344V5.856C39.1842 5.856 39.9402 5.94 39.9402 6.92C39.9402 7.858 39.1842 8.026 37.1822 8.026C35.0262 8.026 33.8642 7.858 33.8642 6.29H31.3442C31.3442 9.412 33.6402 10.14 37.0422 10.14C40.4862 10.14 42.4602 9.412 42.4602 7.242C42.4602 6.22 41.8862 5.548 40.9482 5.1Z" fill="white"/>
</svg>
